<svg version="1.1" xmlns="http://www.w3.org/2000/svg" xmlns:xlink="http://www.w3.org/1999/xlink" x="0px" y="0px"
	 viewBox="0 0 271 391" style="enable-background:new 0 0 271 391;" xml:space="preserve">
<style type="text/css">

</style>
<g id="lapiz_x5F_linea_x5F_de_x5F_afuera">
	<path class="st0" d="M70.3,315.2l0.2-258.9l-24.6-50l-0.1-0.1c-0.4-0.7-1.2-1.4-2.3-1.4l-0.1,0c-0.4,0-1.5,0.2-2.2,1.5L15.7,58
		l-0.2,296.5l0.1,2l0.2,0c1.9,13.4,13.4,23.6,27.1,23.6c15.1,0,27.4-12.3,27.4-27.4l0-12.7l0-2.5l0-1l-29,0l0,3.5l25,0l0,12.7
		c0,12.9-10.5,23.4-23.4,23.4c-12.2,0-22.5-9.6-23.3-21.8l-0.1-0.6l0.2-294.8l23.9-48.3l23,46.6l-0.2,258L70.3,315.2z"/>
</g>
<g id="lapiz_x5F_linea_x5F_de_x5F_dentro">
	<g class="st1">
		<rect x="42" y="80.8" class="st2" width="4" height="232"/>
	</g>
	<g class="st1">
		<path class="st2" d="M66.5,61.2l-23.4,0c-1.1,0-2-0.9-2-2v0c0-1.1,0.9-2,2-2l23.4,0L66.5,61.2z"/>
	</g>
</g>
<g id="reglas_x5F_lineas_x5F_de_x5F_afuera">
	<path class="st3" d="M226.6,8.8h-61c-17.4,0-31.5,14.1-31.5,31.5v220.5v4.5v0h35.2v-4.5h-30.2V40.3c0-14.6,11.9-26.5,26.5-26.5h61
		c14.6,0,26.5,11.9,26.5,26.5v313c0,14.6-11.9,26.5-26.5,26.5h-61c-14.6,0-26.5-11.9-26.5-26.5v-64.5h-5v64.5
		c0,17.4,14.1,31.5,31.5,31.5h61c17.4,0,31.5-14.1,31.5-31.5v-313C258.1,22.9,243.9,8.8,226.6,8.8z"/>
</g>
<g id="reglas_x5F_lineas_x5F_de_x5F_dentro">
	<g>
		<path class="st3" d="M147.1,242.3h-8.3v-5h8.3c1.4,0,2.5,1.1,2.5,2.5l0,0C149.6,241.2,148.5,242.3,147.1,242.3z"/>
	</g>
	<g>
		<path class="st3" d="M147.1,216.3h-8.3v-5h8.3c1.4,0,2.5,1.1,2.5,2.5l0,0C149.6,215.2,148.5,216.3,147.1,216.3z"/>
	</g>
	<g>
		<path class="st3" d="M147.1,190.3h-8.3v-5h8.3c1.4,0,2.5,1.1,2.5,2.5l0,0C149.6,189.2,148.5,190.3,147.1,190.3z"/>
	</g>
	<g>
		<path class="st3" d="M147.1,140h-8.3v-5h8.3c1.4,0,2.5,1.1,2.5,2.5v0C149.6,138.9,148.5,140,147.1,140z"/>
	</g>
	<g>
		<path class="st3" d="M147.1,113.6h-8.3v-5h8.3c1.4,0,2.5,1.1,2.5,2.5v0C149.6,112.5,148.5,113.6,147.1,113.6z"/>
	</g>
	<g>
		<path class="st3" d="M147.1,88.6h-8.3v-5h8.3c1.4,0,2.5,1.1,2.5,2.5v0C149.6,87.5,148.5,88.6,147.1,88.6z"/>
	</g>
	<g>
		<path class="st3" d="M172.6,62.6h-33.7v-5h33.7c1.4,0,2.5,1.1,2.5,2.5v0C175.1,61.5,173.9,62.6,172.6,62.6z"/>
	</g>
	<g>
		<path class="st3" d="M173.9,164.3h-35v-5h35c1.4,0,2.5,1.1,2.5,2.5l0,0C176.4,163.2,175.3,164.3,173.9,164.3z"/>
	</g>
	<g>
		<path class="st3" d="M195.4,342.7c-10.6,0-19.2-8.6-19.2-19.2s8.6-19.2,19.2-19.2s19.2,8.6,19.2,19.2S206,342.7,195.4,342.7z
			 M195.4,307.7c-8.7,0-15.8,7.1-15.8,15.8s7.1,15.8,15.8,15.8s15.8-7.1,15.8-15.8S204.1,307.7,195.4,307.7z"/>
	</g>
</g>
</svg>
