<?xml version="1.0" encoding="utf-8"?>
<!-- Generator: Adobe Illustrator 21.0.0, SVG Export Plug-In . SVG Version: 6.00 Build 0)  -->
<svg version="1.1" xmlns="http://www.w3.org/2000/svg" xmlns:xlink="http://www.w3.org/1999/xlink" x="0px" y="0px"
	 viewBox="0 0 309 401" style="enable-background:new 0 0 309 401;" xml:space="preserve">
<style type="text/css">
	.st0{fill:none;stroke:#D3054F;stroke-width:5;stroke-miterlimit:10;}
	.st1{fill:none;stroke:#CCCCCC;stroke-width:5;stroke-miterlimit:10;}
</style>
<g id="Lapiz_x5F_lineas_x5F_afuera">
	<path class="st0" d="M20.6,359.3V65.4c0-0.1,0-0.1,0-0.2l25.1-51.7c0.2-0.3,0.6-0.3,0.8,0l25,51.7c0,0.1,0,0.1,0,0.2v293.9"/>
	<path class="st0" d="M71.5,359.3c0,14-11.4,25.4-25.4,25.4s-25.4-11.4-25.4-25.4"/>
</g>
<g id="Lapiz_x5F_lineas_x5F_adentro">
	<line class="st0" x1="44.5" y1="65.3" x2="71.5" y2="65.3"/>
	<line class="st0" x1="44.5" y1="344.3" x2="71.5" y2="344.3"/>
	<line class="st0" x1="47.1" y1="88.9" x2="47.1" y2="320.9"/>
</g>
<g id="regla_x5F_linea_x5F_afuera">
	<path class="st1" d="M176.6,286.7V355v1c0,13.9,11.3,25.2,25.2,25.2H270c13.9,0,25.2-11.3,25.2-25.2v-1V38.8v-2.8
		c0-13.9-11.3-25.2-25.2-25.2h-4.4h-63.9c-13.9,0-25.2,11.3-25.2,25.2v2.8v223.7h32.7"/>
</g>
<g id="regla_x5F_linea_x5F_adentro">
	<line class="st1" x1="188.7" y1="239.3" x2="178.5" y2="239.3"/>
	<line class="st1" x1="209.2" y1="161.3" x2="178.5" y2="161.3"/>
	<line class="st1" x1="209.3" y1="59.7" x2="178.6" y2="59.7"/>
	<line class="st1" x1="188.7" y1="213.3" x2="178.5" y2="213.3"/>
	<line class="st1" x1="188.7" y1="187.3" x2="178.5" y2="187.3"/>
	<line class="st1" x1="188.7" y1="137" x2="178.5" y2="137"/>
	<line class="st1" x1="188.7" y1="110.7" x2="178.5" y2="110.7"/>
	<line class="st1" x1="188.7" y1="85.7" x2="178.5" y2="85.7"/>
	<circle class="st1" cx="235.4" cy="323.1" r="17.7"/>
</g>
</svg>
